<svg xmlns="http://www.w3.org/2000/svg" width="216.5" height="37.344" viewBox="0 0 216.5 37.344">
  <g id="Groupe_1460" data-name="Groupe 1460" transform="translate(-626.586 -766.806)">
    <g id="Groupe_1459" data-name="Groupe 1459" transform="translate(626.586 769.202)">
      <path id="Tracé_1456" data-name="Tracé 1456" d="M677.473,804.5a14.29,14.29,0,0,0,4.475-4.148h2.058a1.894,1.894,0,0,0,0-3.789h-.163a14.421,14.421,0,0,0,.718-3.756h2.025a1.894,1.894,0,1,0,0-3.789H684.5a14.381,14.381,0,0,0-.914-3.756h.392a1.894,1.894,0,0,0,0-3.789h-2.547a14.559,14.559,0,0,0-11.334-5.455h-3.233a14.162,14.162,0,0,0-5.749,1.208h3.4a14.281,14.281,0,0,1,1.8,28.448c-.425.033-.849.065-1.306.065H650.3a17.53,17.53,0,0,0,5.977-5.389,1.1,1.1,0,0,0,.327.033h12.8a1.894,1.894,0,0,0,0-3.789H658.268a18.143,18.143,0,0,0,.98-3.756h14.665a1.894,1.894,0,0,0,0-3.789h-14.5a17.763,17.763,0,0,0-.719-3.756h10.779a1.894,1.894,0,0,0,0-3.789H657.027A17.5,17.5,0,0,0,642,772.918h-1.241a17.488,17.488,0,0,0-14.175,7.316,15.577,15.577,0,0,1,26.423,4.867h-7.9a8.583,8.583,0,1,0,.163,10.517H637.1a6.823,6.823,0,0,1,6.826-6.826h9.962a14.223,14.223,0,0,1,.1,1.666,15.582,15.582,0,0,1-27.077,10.517,17.465,17.465,0,0,0,13.881,6.892H666.4c13.261,0,24.006-.784,24.006-1.8C690.407,805.416,685.148,804.8,677.473,804.5Z" transform="translate(-626.586 -772.918)" fill="#f78557"/>
    </g>
    <path id="Fill-1-Copy-8" d="M979.534,778.576h-3.218v6.236h-2.791a.839.839,0,0,0-.854.854V789.2h3.645v19.621h4.642a.839.839,0,0,0,.854-.854V789.226h4.015V785.7a.839.839,0,0,0-.854-.854h-3.161v-3.987A2.285,2.285,0,0,0,979.534,778.576Z" transform="translate(-210.432 -7.157)" fill="#24275e" fill-rule="evenodd"/>
    <path id="Fill-2-Copy-10" d="M1011.1,808.847h4.642a.839.839,0,0,0,.854-.854V780.854a2.285,2.285,0,0,0-2.278-2.278H1011.1Z" transform="translate(-233.8 -7.157)" fill="#24275e" fill-rule="evenodd"/>
    <path id="Fill-3-Copy-8" d="M1035.588,818.565h4.642a.839.839,0,0,0,.854-.854V796.837a2.285,2.285,0,0,0-2.279-2.278h-3.218Z" transform="translate(-248.687 -16.875)" fill="#24275e" fill-rule="evenodd"/>
    <path id="Fill-5-Copy-8" d="M1037.246,766.806a3.319,3.319,0,0,0-3.474,3.474,3.176,3.176,0,0,0,.968,2.42,3.463,3.463,0,0,0,2.506.94,3.373,3.373,0,0,0,2.449-.94,3.218,3.218,0,0,0,.968-2.42,3.369,3.369,0,0,0-.968-2.506,3.239,3.239,0,0,0-2.449-.968" transform="translate(-247.583)" fill="#24275e" fill-rule="evenodd"/>
    <path id="Fill-7-Copy-8" d="M1063.663,803.8a6.091,6.091,0,0,1,1.509-4.357,5.43,5.43,0,0,1,4.129-1.566,4.378,4.378,0,0,1,3.588,1.452,6.135,6.135,0,0,1,1.168,4.015v14.409h4.642a.839.839,0,0,0,.854-.854V802.662a9.861,9.861,0,0,0-2.335-6.892,8.416,8.416,0,0,0-6.607-2.591,9.4,9.4,0,0,0-4.642,1.082,6.909,6.909,0,0,0-2.763,2.648V796a2.284,2.284,0,0,0-2.278-2.278h-2.819v24.035h4.642a.839.839,0,0,0,.854-.854V803.8Z" transform="translate(-262.381 -16.036)" fill="#24275e" fill-rule="evenodd"/>
    <path id="Combined-Shape-Copy-2" d="M851.506,787.512a10.093,10.093,0,1,0,.883,9.853H841.483a6.429,6.429,0,0,1,6.436-6.436h10.65a15.138,15.138,0,0,1,.171,2.307,15.589,15.589,0,1,1-1.082-5.724Z" transform="translate(-122.215 -6.582)" fill="#24275e" fill-rule="evenodd"/>
    <path id="Combined-Shape-Copy-3" d="M1134.843,802.46a6.477,6.477,0,1,0,.684,7.005h-6.749a4.348,4.348,0,0,1,4.215-4.357h8.657a11.027,11.027,0,0,1,.085,1.367,11.959,11.959,0,1,1-.684-4.015Z" transform="translate(-298.649 -16.83)" fill="#24275e" fill-rule="evenodd"/>
    <path id="Tracé_1457" data-name="Tracé 1457" d="M935.839,807.028a11.969,11.969,0,1,0-5.5,10.115v1.73h3.218a2.285,2.285,0,0,0,2.278-2.278v-9.568Zm-11.989,6.606a6.578,6.578,0,1,1,6.578-6.578A6.581,6.581,0,0,1,923.851,813.635Z" transform="translate(-173.458 -17.184)" fill="#24275e" fill-rule="evenodd"/>
  </g>
</svg>
