<svg width="90" height="90" viewBox="0 0 90 90" fill="none" xmlns="http://www.w3.org/2000/svg">
<g clip-path="url(#clip0_9472_1382)">
<path d="M78.5193 39.3799H60.625V50.6267H78.5193V39.3799Z" fill="white"/>
<path d="M90.625 50.6264V74.1653H79.3793V68.4204C74.2444 72.5415 67.721 75.0061 60.6269 75.0061H30.6269C21.1553 75.0061 12.7095 70.6169 7.21197 63.7593H37.212C34.2077 60.0142 32.0828 55.5325 31.1533 50.6284H1.15142C0.806257 48.806 0.625 46.9257 0.625 45.005C0.625 43.0842 0.806257 41.202 1.15142 39.3796H31.1514C32.0808 34.4756 34.2058 29.9938 37.21 26.2487H7.21004C12.7056 19.3892 21.1533 15 30.625 15H60.625C68.9088 15 76.4098 18.3594 81.8379 23.788L73.8857 31.741C70.492 28.3469 65.8024 26.2487 60.625 26.2487C58.5772 26.2487 56.6065 26.5766 54.7611 27.184C49.04 29.0662 44.5355 33.6251 42.7287 39.3816C42.1715 41.1577 41.8707 43.0476 41.8707 45.0069C41.8707 46.9662 42.1715 48.8561 42.7287 50.6303C44.5355 56.3848 49.04 60.9457 54.7611 62.8259C56.6065 63.4334 58.5772 63.7612 60.625 63.7612C69.0226 63.7612 76.1302 58.24 78.5193 50.6303H90.625V50.6264Z" fill="white"/>
</g>
<defs>
<clipPath id="clip0_9472_1382">
<rect width="90" height="90" fill="white"/>
</clipPath>
</defs>
</svg>
