<svg width="253" height="139" viewBox="0 0 253 139" fill="none" xmlns="http://www.w3.org/2000/svg">
<g clip-path="url(#clip0_2008_6449)">
<path d="M201.26 125.31C208.21 121.19 214.26 115.66 218.89 108.97H227C231.12 108.97 234.46 105.62 234.46 101.51C234.46 97.4001 231.11 94.0501 227 94.0501H226.36C227.9 89.2901 228.93 84.4001 229.19 79.2501H237.17C241.29 79.2501 244.63 75.9001 244.63 71.7901C244.63 67.6701 241.28 64.3301 237.17 64.3301H228.93C228.42 59.1801 227.13 54.1601 225.33 49.5301H226.87C230.99 49.5301 234.33 46.1801 234.33 42.0701C234.33 37.9501 230.98 34.6101 226.87 34.6101H216.83C206.53 21.7401 190.32 13.1201 172.17 13.1201H159.43C151.45 13.1201 143.73 14.7901 136.78 17.8801H150.16C181.05 17.8801 206.4 43.2301 206.4 74.1201C206.4 102.69 184.91 126.37 157.24 129.97C155.57 130.1 153.89 130.23 152.09 130.23H94.18C103.57 125.08 111.68 117.75 117.73 109C118.12 109.13 118.63 109.13 119.02 109.13H169.47C173.59 109.13 176.93 105.78 176.93 101.67C176.93 97.5601 173.58 94.2101 169.47 94.2101H125.58C127.38 89.4501 128.67 84.5601 129.44 79.4101H187.22C191.34 79.4101 194.68 76.0601 194.68 71.9501C194.68 67.8401 191.33 64.4901 187.22 64.4901H130.08C129.69 59.3401 128.66 54.4501 127.25 49.6901H169.72C173.84 49.6901 177.18 46.3401 177.18 42.2301C177.18 38.1201 173.83 34.7701 169.72 34.7701H120.7C108.73 14.5601 86.6 0.920044 61.5 0.920044H56.61C33.7 0.920044 13.24 12.3701 0.76001 29.7501C11.96 16.7501 28.69 8.52005 47.22 8.52005C73.73 8.52005 96.38 25.3801 104.88 48.9301H73.74C67.56 41.0801 57.91 36.0601 47.23 36.0601C28.57 36.3201 13.51 51.3701 13.51 70.0401C13.51 88.7101 28.7 103.89 47.36 103.89C58.43 103.89 68.21 98.6101 74.39 90.3801H42.22C42.22 75.4501 54.32 63.4801 69.12 63.4801H80.45H91.9H108.37C108.63 65.6701 108.76 67.8601 108.76 70.0401C108.76 103.89 81.22 131.43 47.37 131.43C29.48 131.43 13.39 123.71 2.07001 111.48C14.68 127.95 34.5 138.63 56.77 138.63H61.66C61.79 138.63 61.92 138.63 62.05 138.63C74.53 138.63 156.64 138.63 157.67 138.63C209.92 138.63 252.26 135.54 252.26 131.55C252.22 128.91 231.5 126.47 201.26 125.31Z" fill="white"/>
</g>
<defs>
<clipPath id="clip0_2008_6449">
<rect width="253" height="139" fill="white"/>
</clipPath>
</defs>
</svg>
