<svg width="539" height="295" viewBox="0 0 539 295" fill="none" xmlns="http://www.w3.org/2000/svg">
<path d="M429.7 266.466C444.595 257.64 457.561 245.794 467.483 231.463H484.864C493.694 231.463 500.852 224.287 500.852 215.482C500.852 206.678 493.673 199.502 484.864 199.502H483.493C486.793 189.305 489.001 178.829 489.558 167.797H506.66C515.49 167.797 522.648 160.621 522.648 151.817C522.648 142.991 515.468 135.836 506.66 135.836H489.001C487.908 124.804 485.143 114.05 481.285 104.132H484.586C493.415 104.132 500.573 96.9552 500.573 88.1508C500.573 79.3251 493.394 72.1702 484.586 72.1702H463.069C440.994 44.6003 406.254 26.1347 367.356 26.1347H340.052C322.95 26.1347 306.405 29.7121 291.51 36.3315H320.185C386.387 36.3315 440.716 90.6358 440.716 156.808C440.716 218.01 394.659 268.737 335.359 276.449C331.78 276.727 328.179 277.006 324.322 277.006H200.212C220.336 265.973 237.717 250.271 250.683 231.527C251.519 231.806 252.612 231.806 253.448 231.806H361.569C370.399 231.806 377.557 224.629 377.557 215.825C377.557 207.021 370.378 199.844 361.569 199.844H267.507C271.365 189.647 274.129 179.172 275.779 168.14H399.61C408.44 168.14 415.598 160.964 415.598 152.159C415.598 143.355 408.418 136.179 399.61 136.179H277.151C276.315 125.146 274.108 114.671 271.086 104.474H362.105C370.935 104.474 378.093 97.298 378.093 88.4936C378.093 79.6892 370.913 72.5129 362.105 72.5129H257.048C231.395 29.2194 183.967 0 130.174 0H119.694C70.5951 0 26.7464 24.528 0 61.7592C24.0032 33.9108 59.8579 16.2806 99.5703 16.2806C156.385 16.2806 204.927 52.3978 223.144 102.846H156.406C143.162 86.0301 122.481 75.2763 99.5918 75.2763C59.6007 75.8333 27.325 108.073 27.325 148.068C27.325 188.062 59.8793 220.581 99.8704 220.581C123.595 220.581 144.555 209.27 157.799 191.64H88.8546C88.8546 159.657 114.787 134.015 146.505 134.015H170.787H195.326H230.623C231.181 138.706 231.459 143.398 231.459 148.068C231.459 220.581 172.437 279.576 99.8918 279.576C61.551 279.576 27.0679 263.039 2.80751 236.84C29.8325 272.121 72.3096 295 120.037 295H130.517C130.796 295 131.074 295 131.353 295C158.1 295 334.073 295 336.28 295C448.259 295 539 288.381 539 279.833C538.914 274.178 494.508 268.951 429.7 266.466Z" fill="white"/>
</svg>
